<?xml version="1.0" standalone="no"?>
<!DOCTYPE svg PUBLIC "-//W3C//DTD SVG 20010904//EN"
 "http://www.w3.org/TR/2001/REC-SVG-20010904/DTD/svg10.dtd">
<svg version="1.0" xmlns="http://www.w3.org/2000/svg"
 width="512.000000pt" height="512.000000pt" viewBox="0 0 512.000000 512.000000"
 preserveAspectRatio="xMidYMid meet">
<metadata>
Created by potrace 1.14, written by Peter Selinger 2001-2017
</metadata>
<g transform="translate(0.000000,512.000000) scale(0.100000,-0.100000)"
fill="#000000" stroke="none">
<path d="M421 5109 c-198 -33 -378 -216 -410 -419 -15 -90 -15 -4170 0 -4260
33 -208 211 -386 419 -419 90 -15 4170 -15 4260 0 208 33 386 211 419 419 15
90 15 4170 0 4260 -33 208 -211 386 -419 419 -82 14 -4189 13 -4269 0z m2167
-880 c224 -24 448 -92 605 -184 92 -54 211 -164 264 -243 88 -133 131 -318
119 -518 -18 -324 -159 -575 -430 -768 -57 -41 -214 -126 -233 -126 -29 -1
-33 -18 -14 -63 31 -73 76 -219 121 -390 55 -214 86 -310 126 -388 43 -87 81
-119 140 -119 89 0 152 48 440 332 227 223 246 235 280 184 25 -39 38 -160 24
-231 -45 -235 -310 -534 -602 -681 -176 -88 -319 -119 -473 -102 -101 11 -171
43 -234 106 -109 109 -152 256 -211 722 -34 269 -53 393 -77 487 l-15 62 -52
15 c-121 36 -219 124 -231 210 -20 132 87 210 290 211 88 0 107 -3 157 -27
l57 -27 79 83 c137 145 192 289 194 506 2 174 -39 288 -136 386 -135 134 -354
183 -695 155 -235 -20 -395 -71 -675 -214 -149 -77 -213 -96 -276 -82 -36 8
-48 41 -30 86 83 200 383 433 699 543 95 33 247 69 331 79 77 9 366 6 458 -4z
m-502 -704 c14 -22 16 -50 11 -208 -5 -203 -28 -343 -98 -617 -180 -694 -169
-628 -169 -1064 0 -200 -4 -388 -10 -417 -15 -82 -58 -158 -112 -199 -63 -47
-248 -129 -320 -142 -82 -14 -126 -4 -168 41 -110 116 -114 513 -9 991 89 403
265 923 416 1225 86 171 137 247 211 318 70 66 129 96 189 97 35 0 46 -5 59
-25z"/>
</g>
</svg>
